<svg xmlns="http://www.w3.org/2000/svg"><path d="m13.352 6.822 5.587-1.436L18.92.5h2.925l2.142 1.01.098 6.452L37.047.734l6.649 12.93 5.676 14.875 2.784 6.022.202 1.544 3.32.34v5.924H.265v-2.343h1.157V23.733L0 22.94 13.352 6.822Z" fill="#fff"/><path d="M37.047.734 23.953 4.099l-.03 5.935-2.083 1.838L21.845.5H18.92l.02 4.886-5.588 1.436L0 22.94l22.677-3.606 14.37-18.6ZM36.661 26.23l-3.01-.766v14.85l-8.557-.108V18.952l-1.31 1.585-21.522 3.1.169 10.701 19.907-.296v5.984H.168v3.052l55.51-.71v-1.693l-19.017-.216v-14.23Z" /><path d="m29.339 34.143 2.905.19v-9.218l-2.905-.77v9.798ZM38.527 34.745l2.216.142v-7.622l-2.216-.564v8.044ZM52.358 36.106l-1.096 1.248-7.607-.085v1.082l12.024.27v-2.176l-3.321-.34ZM32.244 10.034l-2.905 3.775v5.11l2.905.87v-9.755Z" /><path d="m36.59 3.618-3.01 4.615V20.19l3.01.9V8.181l1.937 3.96v9.528l2.214.662v-5.663l3.07 6.273.032 12.15c2.412.158 4.82.334 7.232.472.46-.059.56-.156.81-.312.172-.105.226-.333.27-.69.014-.12.049-.235.038-.356-.073-.887-.626-1.741-1.137-2.444-.295-.407-.002-.9.305-1.212.598-.603 1.454-.947 1.933-1.648 1.064-1.56-.453-2.852-1.486-3.837a3.576 3.576 0 0 1-.128-.127.95.95 0 0 1-.217-.338c-.097-.285.01-.6.169-.858.215-.344.51-.647.652-1.032.26-.705.269-1.505.002-2.21-.544-1.43-1.921-2.027-3.36-2.094-.743-.035-1.447-.201-1.423-1.094.008-.312.086-.619.09-.933.01-.573-.238-1.133-.615-1.566-.374-.432-.87-.75-1.395-.984-1.07-.478-2.169-.391-2.868.623-.046.065-.347.472-.301.558.002 0-5.824-11.391-5.824-11.391Z" /></svg>