<?xml version="1.0" encoding="utf-8"?><svg viewBox="0 0 55.68 42.58" xmlns="http://www.w3.org/2000/svg" xmlns:xlink="http://www.w3.org/1999/xlink"><style>:root>svg{display:none}:root>svg:target{display:block}</style><svg viewBox="0 0 55.68 42.58" id="card-product" xmlns="http://www.w3.org/2000/svg"><path d="M13.352 6.822l5.587-1.436L18.92.5h2.925l2.142 1.01.098 6.452L37.047.734l6.649 12.93 5.676 14.875 2.784 6.022.202 1.544 3.32.34v5.924H.265v-2.343h1.157V23.733L0 22.94 13.352 6.822z" fill="#fff"/><path d="M37.047.734L23.953 4.099l-.03 5.935-2.083 1.838L21.845.5H18.92l.02 4.886-5.588 1.436L0 22.94l22.677-3.606 14.37-18.6zm-.386 25.496l-3.01-.766v14.85l-8.557-.108V18.952l-1.31 1.585-21.522 3.1.169 10.701 19.907-.296v5.984H.168v3.052l55.51-.71v-1.693l-19.017-.216v-14.23z"/><path d="M29.339 34.143l2.905.19v-9.218l-2.905-.77v9.798zm9.188.602l2.216.142v-7.622l-2.216-.564v8.044zm13.831 1.361l-1.096 1.248-7.607-.085v1.082l12.024.27v-2.176l-3.321-.34zM32.244 10.034l-2.905 3.775v5.11l2.905.87v-9.755z"/><path d="M36.59 3.618l-3.01 4.615V20.19l3.01.9V8.181l1.937 3.96v9.528l2.214.662v-5.663l3.07 6.273.032 12.15c2.412.158 4.82.334 7.232.472.46-.059.56-.156.81-.312.172-.105.226-.333.27-.69.014-.12.049-.235.038-.356-.073-.887-.626-1.741-1.137-2.444-.295-.407-.002-.9.305-1.212.598-.603 1.454-.947 1.933-1.648 1.064-1.56-.453-2.852-1.486-3.837a3.576 3.576 0 01-.128-.127.95.95 0 01-.217-.338c-.097-.285.01-.6.169-.858.215-.344.51-.647.652-1.032.26-.705.269-1.505.002-2.21-.544-1.43-1.921-2.027-3.36-2.094-.743-.035-1.447-.201-1.423-1.094.008-.312.086-.619.09-.933.01-.573-.238-1.133-.615-1.566-.374-.432-.87-.75-1.395-.984-1.07-.478-2.169-.391-2.868.623-.046.065-.347.472-.301.558.002 0-5.824-11.391-5.824-11.391z"/></svg><svg viewBox="0 0 14 10.1" id="check" xmlns="http://www.w3.org/2000/svg"><path d="M13.838 2.047L5.816 9.844a.562.562 0 01-.777 0L.161 5.07a.526.526 0 010-.757l1.165-1.132a.56.56 0 01.777 0l3.329 3.257L11.894.156a.563.563 0 01.778 0l1.166 1.134a.522.522 0 010 .757z" fill="red"/></svg></svg>